{
  "accessors": [
    {
      "bufferView": 2,
      "componentType": 5126,
      "count": 65532,
      "max": [
        2.4460558891296387,
        2.1212668418884277,
        1.5062509775161743
      ],
      "min": [
        0.0716019868850708,
        0.3239229917526245,
        0.0
      ],
      "type": "VEC3"
    },
    {
      "bufferView": 2,
      "byteOffset": 786384,
      "componentType": 5126,
      "count": 65532,
      "max": [
        0.9998230934143066,
        0.9994565844535828,
        0.999886155128479
      ],
      "min": [
        -0.999933660030365,
        -0.9996179938316345,
        -0.9999989867210388
      ],
      "type": "VEC3"
    },
    {
      "bufferView": 1,
      "componentType": 5126,
      "count": 65532,
      "max": [
        0.9962630271911621,
        0.9982330203056335
      ],
      "min": [
        0.003502999898046255,
        0.00367900007404387
      ],
      "type": "VEC2"
    },
    {
      "bufferView": 0,
      "componentType": 5125,
      "count": 334146,
      "type": "SCALAR"
    },
    {
      "bufferView": 2,
      "byteOffset": 1572768,
      "componentType": 5126,
      "count": 65532,
      "max": [
        2.3450169563293457,
        2.296311855316162,
        1.4458999633789063
      ],
      "min": [
        0.22386693954467773,
        0.2810479998588562,
        0.048341989517211914
      ],
      "type": "VEC3"
    },
    {
      "bufferView": 2,
      "byteOffset": 2359152,
      "componentType": 5126,
      "count": 65532,
      "max": [
        0.9994189739227295,
        0.9999006390571594,
        0.9999099373817444
      ],
      "min": [
        -0.9987497329711914,
        -0.9994885325431824,
        -0.9999988675117493
      ],
      "type": "VEC3"
    },
    {
      "bufferView": 1,
      "byteOffset": 524256,
      "componentType": 5126,
      "count": 65532,
      "max": [
        0.9983739852905273,
        0.9982669949531555
      ],
      "min": [
        0.001069999998435378,
        0.003746999893337488
      ],
      "type": "VEC2"
    },
    {
      "bufferView": 0,
      "byteOffset": 1336584,
      "componentType": 5125,
      "count": 323544,
      "type": "SCALAR"
    },
    {
      "bufferView": 2,
      "byteOffset": 3145536,
      "componentType": 5126,
      "count": 65532,
      "max": [
        2.6121609210968018,
        2.3000619411468506,
        1.4261770248413086
      ],
      "min": [
        0.12419390678405762,
        0.15378594398498535,
        0.09860599040985107
      ],
      "type": "VEC3"
    },
    {
      "bufferView": 2,
      "byteOffset": 3931920,
      "componentType": 5126,
      "count": 65532,
      "max": [
        0.9982253909111023,
        0.9999844431877136,
        0.9999776482582092
      ],
      "min": [
        -0.9999704957008362,
        -0.9991874098777771,
        -0.9999948143959045
      ],
      "type": "VEC3"
    },
    {
      "bufferView": 1,
      "byteOffset": 1048512,
      "componentType": 5126,
      "count": 65532,
      "max": [
        0.9964590072631836,
        0.9997400045394897
      ],
      "min": [
        0.0032659999560564756,
        0.003911000210791826
      ],
      "type": "VEC2"
    },
    {
      "bufferView": 0,
      "byteOffset": 2630760,
      "componentType": 5125,
      "count": 311508,
      "type": "SCALAR"
    },
    {
      "bufferView": 2,
      "byteOffset": 4718304,
      "componentType": 5126,
      "count": 65532,
      "max": [
        2.535475015640259,
        2.283259868621826,
        1.780937910079956
      ],
      "min": [
        0.01069796085357666,
        0.012697935104370117,
        0.19110596179962158
      ],
      "type": "VEC3"
    },
    {
      "bufferView": 2,
      "byteOffset": 5504688,
      "componentType": 5126,
      "count": 65532,
      "max": [
        0.9999909400939941,
        0.9999992251396179,
        0.9995436668395996
      ],
      "min": [
        -0.9998943209648132,
        -0.998794674873352,
        -0.9999921917915344
      ],
      "type": "VEC3"
    },
    {
      "bufferView": 1,
      "byteOffset": 1572768,
      "componentType": 5126,
      "count": 65532,
      "max": [
        0.9959080219268799,
        0.999813973903656
      ],
      "min": [
        0.0036609999369829893,
        0.003711000084877014
      ],
      "type": "VEC2"
    },
    {
      "bufferView": 0,
      "byteOffset": 3876792,
      "componentType": 5125,
      "count": 300258,
      "type": "SCALAR"
    },
    {
      "bufferView": 2,
      "byteOffset": 6291072,
      "componentType": 5126,
      "count": 65532,
      "max": [
        2.610424041748047,
        2.2318179607391357,
        1.8033840656280518
      ],
      "min": [
        0.0,
        0.0,
        0.37570899724960327
      ],
      "type": "VEC3"
    },
    {
      "bufferView": 2,
      "byteOffset": 7077456,
      "componentType": 5126,
      "count": 65532,
      "max": [
        0.9981099963188171,
        0.9999700784683228,
        0.9995957016944885
      ],
      "min": [
        -0.9999919533729553,
        -0.9999948143959045,
        -0.9999955296516418
      ],
      "type": "VEC3"
    },
    {
      "bufferView": 1,
      "byteOffset": 2097024,
      "componentType": 5126,
      "count": 65532,
      "max": [
        0.9936019778251648,
        0.9986259937286377
      ],
      "min": [
        0.003137999912723899,
        0.0039969999343156815
      ],
      "type": "VEC2"
    },
    {
      "bufferView": 0,
      "byteOffset": 5077824,
      "componentType": 5125,
      "count": 309222,
      "type": "SCALAR"
    },
    {
      "bufferView": 2,
      "byteOffset": 7863840,
      "componentType": 5126,
      "count": 65532,
      "max": [
        2.6339259147644043,
        2.206984043121338,
        1.8431830406188965
      ],
      "min": [
        0.0050280094146728516,
        0.00020802021026611328,
        0.43438398838043213
      ],
      "type": "VEC3"
    },
    {
      "bufferView": 2,
      "byteOffset": 8650224,
      "componentType": 5126,
      "count": 65532,
      "max": [
        0.999840259552002,
        0.9999844431877136,
        0.9994613528251648
      ],
      "min": [
        -0.9999733567237854,
        -0.9999805688858032,
        -0.9999862909317017
      ],
      "type": "VEC3"
    },
    {
      "bufferView": 1,
      "byteOffset": 2621280,
      "componentType": 5126,
      "count": 65532,
      "max": [
        0.995618999004364,
        0.9833850264549255
      ],
      "min": [
        0.007903999648988247,
        0.0036899999249726534
      ],
      "type": "VEC2"
    },
    {
      "bufferView": 0,
      "byteOffset": 6314712,
      "componentType": 5125,
      "count": 323379,
      "type": "SCALAR"
    },
    {
      "bufferView": 2,
      "byteOffset": 9436608,
      "componentType": 5126,
      "count": 65533,
      "max": [
        2.4080491065979004,
        1.9579050540924072,
        1.912585973739624
      ],
      "min": [
        0.4098479747772217,
        0.12912797927856445,
        0.7361170053482056
      ],
      "type": "VEC3"
    },
    {
      "bufferView": 2,
      "byteOffset": 10223004,
      "componentType": 5126,
      "count": 65533,
      "max": [
        0.9996054172515869,
        0.9999826550483704,
        0.9999991059303284
      ],
      "min": [
        -0.9997804164886475,
        -0.9995651841163635,
        -0.9997658133506775
      ],
      "type": "VEC3"
    },
    {
      "bufferView": 1,
      "byteOffset": 3145536,
      "componentType": 5126,
      "count": 65533,
      "max": [
        0.9969620108604431,
        0.9991989731788635
      ],
      "min": [
        0.0032550001051276922,
        0.09527099877595901
      ],
      "type": "VEC2"
    },
    {
      "bufferView": 0,
      "byteOffset": 7608228,
      "componentType": 5125,
      "count": 335811,
      "type": "SCALAR"
    },
    {
      "bufferView": 2,
      "byteOffset": 11009400,
      "componentType": 5126,
      "count": 65532,
      "max": [
        2.2253949642181396,
        2.238232135772705,
        1.912585973739624
      ],
      "min": [
        0.5101419687271118,
        0.19929194450378418,
        0.08464300632476807
      ],
      "type": "VEC3"
    },
    {
      "bufferView": 2,
      "byteOffset": 11795784,
      "componentType": 5126,
      "count": 65532,
      "max": [
        0.99996417760849,
        0.9998040795326233,
        0.9999991059303284
      ],
      "min": [
        -0.9998272061347961,
        -0.9997297525405884,
        -0.9999890923500061
      ],
      "type": "VEC3"
    },
    {
      "bufferView": 1,
      "byteOffset": 3669800,
      "componentType": 5126,
      "count": 65532,
      "max": [
        0.9996269941329956,
        1.0107669830322266
      ],
      "min": [
        0.00042600001324899495,
        0.024660000577569008
      ],
      "type": "VEC2"
    },
    {
      "bufferView": 0,
      "byteOffset": 8951472,
      "componentType": 5125,
      "count": 274029,
      "type": "SCALAR"
    },
    {
      "bufferView": 2,
      "byteOffset": 12582168,
      "componentType": 5126,
      "count": 65532,
      "max": [
        2.393035888671875,
        2.224458932876587,
        1.860234022140503
      ],
      "min": [
        0.21486294269561768,
        0.20223599672317505,
        0.5244330167770386
      ],
      "type": "VEC3"
    },
    {
      "bufferView": 2,
      "byteOffset": 13368552,
      "componentType": 5126,
      "count": 65532,
      "max": [
        0.9999410510063171,
        0.9999260306358337,
        0.9999860525131226
      ],
      "min": [
        -0.999878466129303,
        -0.9999982118606567,
        -0.9999963045120239
      ],
      "type": "VEC3"
    },
    {
      "bufferView": 1,
      "byteOffset": 4194056,
      "componentType": 5126,
      "count": 65532,
      "max": [
        0.999625027179718,
        1.0013320446014404
      ],
      "min": [
        -2.499999936844688e-05,
        0.029833000153303146
      ],
      "type": "VEC2"
    },
    {
      "bufferView": 0,
      "byteOffset": 10047588,
      "componentType": 5125,
      "count": 257223,
      "type": "SCALAR"
    },
    {
      "bufferView": 2,
      "byteOffset": 14154936,
      "componentType": 5126,
      "count": 59480,
      "max": [
        2.6339259147644043,
        2.1894779205322266,
        1.8266279697418213
      ],
      "min": [
        0.03946793079376221,
        0.06012701988220215,
        0.4831250011920929
      ],
      "type": "VEC3"
    },
    {
      "bufferView": 2,
      "byteOffset": 14868696,
      "componentType": 5126,
      "count": 59480,
      "max": [
        0.9999768137931824,
        0.9994359016418457,
        0.9995957016944885
      ],
      "min": [
        -0.999922513961792,
        -0.9999982118606567,
        -0.9974047541618347
      ],
      "type": "VEC3"
    },
    {
      "bufferView": 1,
      "byteOffset": 4718312,
      "componentType": 5126,
      "count": 59480,
      "max": [
        0.9937549829483032,
        0.999642014503479
      ],
      "min": [
        0.023545999079942703,
        0.006616000086069107
      ],
      "type": "VEC2"
    },
    {
      "bufferView": 0,
      "byteOffset": 11076480,
      "componentType": 5125,
      "count": 230880,
      "type": "SCALAR"
    }
  ],
  "asset": {
    "extras": {
      "author": "The Royal Armoury (Livrustkammaren) (https://sketchfab.com/TheRoyalArmoury)",
      "license": "CC-BY-SA-4.0 (http://creativecommons.org/licenses/by-sa/4.0/)",
      "source": "https://sketchfab.com/3d-models/helmet-with-grotesque-visor-d1438344826a4ff9b97dd35ccd56f535",
      "title": "Helmet with Grotesque Visor"
    },
    "generator": "Sketchfab-12.68.0",
    "version": "2.0"
  },
  "bufferViews": [
    {
      "buffer": 0,
      "byteLength": 12000000,
      "name": "floatBufferViews",
      "target": 34963
    },
    {
      "buffer": 0,
      "byteLength": 5194152,
      "byteOffset": 12000000,
      "byteStride": 8,
      "name": "floatBufferViews",
      "target": 34962
    },
    {
      "buffer": 0,
      "byteLength": 15582456,
      "byteOffset": 17194152,
      "byteStride": 12,
      "name": "floatBufferViews",
      "target": 34962
    }
  ],
  "buffers": [
    {
      "byteLength": 32776608,
      "uri": "scene.bin"
    }
  ],
  "images": [
    {
      "uri": "textures/material_0_baseColor.jpeg"
    }
  ],
  "materials": [
    {
      "doubleSided": true,
      "name": "material_0",
      "pbrMetallicRoughness": {
        "baseColorTexture": {
          "index": 0
        },
        "roughnessFactor": 0.22
      }
    }
  ],
  "meshes": [
    {
      "name": "Object_0",
      "primitives": [
        {
          "attributes": {
            "NORMAL": 1,
            "POSITION": 0,
            "TEXCOORD_0": 2
          },
          "indices": 3,
          "material": 0,
          "mode": 4
        }
      ]
    },
    {
      "name": "Object_1",
      "primitives": [
        {
          "attributes": {
            "NORMAL": 5,
            "POSITION": 4,
            "TEXCOORD_0": 6
          },
          "indices": 7,
          "material": 0,
          "mode": 4
        }
      ]
    },
    {
      "name": "Object_2",
      "primitives": [
        {
          "attributes": {
            "NORMAL": 9,
            "POSITION": 8,
            "TEXCOORD_0": 10
          },
          "indices": 11,
          "material": 0,
          "mode": 4
        }
      ]
    },
    {
      "name": "Object_3",
      "primitives": [
        {
          "attributes": {
            "NORMAL": 13,
            "POSITION": 12,
            "TEXCOORD_0": 14
          },
          "indices": 15,
          "material": 0,
          "mode": 4
        }
      ]
    },
    {
      "name": "Object_4",
      "primitives": [
        {
          "attributes": {
            "NORMAL": 17,
            "POSITION": 16,
            "TEXCOORD_0": 18
          },
          "indices": 19,
          "material": 0,
          "mode": 4
        }
      ]
    },
    {
      "name": "Object_5",
      "primitives": [
        {
          "attributes": {
            "NORMAL": 21,
            "POSITION": 20,
            "TEXCOORD_0": 22
          },
          "indices": 23,
          "material": 0,
          "mode": 4
        }
      ]
    },
    {
      "name": "Object_6",
      "primitives": [
        {
          "attributes": {
            "NORMAL": 25,
            "POSITION": 24,
            "TEXCOORD_0": 26
          },
          "indices": 27,
          "material": 0,
          "mode": 4
        }
      ]
    },
    {
      "name": "Object_7",
      "primitives": [
        {
          "attributes": {
            "NORMAL": 29,
            "POSITION": 28,
            "TEXCOORD_0": 30
          },
          "indices": 31,
          "material": 0,
          "mode": 4
        }
      ]
    },
    {
      "name": "Object_8",
      "primitives": [
        {
          "attributes": {
            "NORMAL": 33,
            "POSITION": 32,
            "TEXCOORD_0": 34
          },
          "indices": 35,
          "material": 0,
          "mode": 4
        }
      ]
    },
    {
      "name": "Object_9",
      "primitives": [
        {
          "attributes": {
            "NORMAL": 37,
            "POSITION": 36,
            "TEXCOORD_0": 38
          },
          "indices": 39,
          "material": 0,
          "mode": 4
        }
      ]
    }
  ],
  "nodes": [
    {
      "children": [
        1
      ],
      "matrix": [
        -0.7682495839137999,
        0.2873267465279276,
        0.16331274535168477,
        0.0,
        -0.32920067442211653,
        -0.7018379087868815,
        -0.3138241208369161,
        0.0,
        0.02923395564843556,
        -0.35256490853996264,
        0.7578116155742797,
        0.0,
        0.004138029646128416,
        0.03606628626585006,
        0.039429705590009696,
        1.0
      ],
      "name": "Sketchfab_model"
    },
    {
      "children": [
        2,
        3,
        4,
        5,
        6,
        7,
        8,
        9,
        10,
        11
      ],
      "matrix": [
        1.0,
        0.0,
        0.0,
        0.0,
        0.0,
        1.0,
        0.0,
        0.0,
        0.0,
        0.0,
        1.0,
        0.0,
        -1.3169629573822021,
        -1.1500309705734253,
        -0.956292986869812,
        1.0
      ],
      "name": "model.obj.cleaner.gles"
    },
    {
      "mesh": 0,
      "name": "Object_2"
    },
    {
      "mesh": 1,
      "name": "Object_3"
    },
    {
      "mesh": 2,
      "name": "Object_4"
    },
    {
      "mesh": 3,
      "name": "Object_5"
    },
    {
      "mesh": 4,
      "name": "Object_6"
    },
    {
      "mesh": 5,
      "name": "Object_7"
    },
    {
      "mesh": 6,
      "name": "Object_8"
    },
    {
      "mesh": 7,
      "name": "Object_9"
    },
    {
      "mesh": 8,
      "name": "Object_10"
    },
    {
      "mesh": 9,
      "name": "Object_11"
    }
  ],
  "samplers": [
    {
      "magFilter": 9729,
      "minFilter": 9987,
      "wrapS": 10497,
      "wrapT": 10497
    }
  ],
  "scene": 0,
  "scenes": [
    {
      "name": "Sketchfab_Scene",
      "nodes": [
        0
      ]
    }
  ],
  "textures": [
    {
      "sampler": 0,
      "source": 0
    }
  ]
}
