{
  "accessors": [
    {
      "bufferView": 2,
      "componentType": 5126,
      "count": 946,
      "max": [
        10.81691837310791,
        2.6062216758728027,
        55.121131896972656
      ],
      "min": [
        -10.816919326782227,
        -2.606221914291382,
        -55.12112808227539
      ],
      "type": "VEC3"
    },
    {
      "bufferView": 2,
      "byteOffset": 11352,
      "componentType": 5126,
      "count": 946,
      "max": [
        0.9999462962150574,
        0.9999998807907104,
        0.9999999403953552
      ],
      "min": [
        -0.9999664425849915,
        -0.9999918937683105,
        -0.9998346567153931
      ],
      "type": "VEC3"
    },
    {
      "bufferView": 3,
      "componentType": 5126,
      "count": 946,
      "max": [
        1.0,
        0.9999160766601563,
        0.9974713921546936,
        1.0
      ],
      "min": [
        -0.9999998807907104,
        -0.9999992251396179,
        -1.0,
        1.0
      ],
      "type": "VEC4"
    },
    {
      "bufferView": 1,
      "componentType": 5126,
      "count": 946,
      "max": [
        0.7846009731292725,
        0.9935094714164734
      ],
      "min": [
        0.006847469136118889,
        0.006452098023146391
      ],
      "type": "VEC2"
    },
    {
      "bufferView": 0,
      "componentType": 5125,
      "count": 4899,
      "type": "SCALAR"
    }
  ],
  "asset": {
    "extras": {
      "author": "FilonovArt (https://sketchfab.com/FilonovArt)",
      "license": "CC-BY-4.0 (http://creativecommons.org/licenses/by/4.0/)",
      "source": "https://sketchfab.com/3d-models/stylized-sword-free-download-1153c739ee6a44a5ba55c99c4246dbd0",
      "title": "Stylized Sword (Free Download)"
    },
    "generator": "Sketchfab-15.9.0",
    "version": "2.0"
  },
  "bufferViews": [
    {
      "buffer": 0,
      "byteLength": 19596,
      "name": "floatBufferViews",
      "target": 34963
    },
    {
      "buffer": 0,
      "byteLength": 7568,
      "byteOffset": 19596,
      "byteStride": 8,
      "name": "floatBufferViews",
      "target": 34962
    },
    {
      "buffer": 0,
      "byteLength": 22704,
      "byteOffset": 27164,
      "byteStride": 12,
      "name": "floatBufferViews",
      "target": 34962
    },
    {
      "buffer": 0,
      "byteLength": 15136,
      "byteOffset": 49868,
      "byteStride": 16,
      "name": "floatBufferViews",
      "target": 34962
    }
  ],
  "buffers": [
    {
      "byteLength": 65004,
      "uri": "scene.bin"
    }
  ],
  "extensionsUsed": [
    "KHR_materials_specular"
  ],
  "images": [
    {
      "uri": "textures/Sword_mat_baseColor.jpeg"
    },
    {
      "uri": "textures/Sword_mat_metallicRoughness.png"
    },
    {
      "uri": "textures/Sword_mat_normal.png"
    }
  ],
  "materials": [
    {
      "doubleSided": true,
      "extensions": {
        "KHR_materials_specular": {
          "specularColorFactor": [
            1.0,
            1.0,
            1.0
          ],
          "specularFactor": 0.6053734756097561
        }
      },
      "name": "Sword_mat",
      "normalTexture": {
        "index": 2
      },
      "occlusionTexture": {
        "index": 1
      },
      "pbrMetallicRoughness": {
        "baseColorTexture": {
          "index": 0
        },
        "metallicRoughnessTexture": {
          "index": 1
        }
      }
    }
  ],
  "meshes": [
    {
      "name": "Sword_Sword_mat_0",
      "primitives": [
        {
          "attributes": {
            "NORMAL": 1,
            "POSITION": 0,
            "TANGENT": 2,
            "TEXCOORD_0": 3
          },
          "indices": 4,
          "material": 0,
          "mode": 4
        }
      ]
    }
  ],
  "nodes": [
    {
      "children": [
        1
      ],
      "matrix": [
        0.909149169921875,
        0.2780353426933289,
        -0.31007120013236994,
        0.0,
        -0.29425713419914246,
        -0.09803240001201609,
        -0.9506852030754089,
        0.0,
        -0.2947211265563965,
        0.9555553197860718,
        -0.007312193047255065,
        0.0,
        0.0,
        0.0,
        0.0,
        1.0
      ],
      "name": "Sketchfab_model"
    },
    {
      "children": [
        2
      ],
      "matrix": [
        1.0,
        0.0,
        0.0,
        0.0,
        0.0,
        0.0,
        1.0,
        0.0,
        0.0,
        -1.0,
        0.0,
        0.0,
        0.0,
        0.0,
        0.0,
        1.0
      ],
      "name": "817f88ab83cb4677b76ccb89b8d0466a.fbx"
    },
    {
      "children": [
        3
      ],
      "name": "RootNode"
    },
    {
      "children": [
        4
      ],
      "name": "Sword"
    },
    {
      "mesh": 0,
      "name": "Sword_Sword_mat_0"
    }
  ],
  "samplers": [
    {
      "magFilter": 9729,
      "minFilter": 9987,
      "wrapS": 10497,
      "wrapT": 10497
    }
  ],
  "scene": 0,
  "scenes": [
    {
      "name": "Sketchfab_Scene",
      "nodes": [
        0
      ]
    }
  ],
  "textures": [
    {
      "sampler": 0,
      "source": 0
    },
    {
      "sampler": 0,
      "source": 1
    },
    {
      "sampler": 0,
      "source": 2
    }
  ]
}
