{
  "accessors": [
    {
      "bufferView": 2,
      "componentType": 5126,
      "count": 1275,
      "max": [
        0.43963006138801575,
        -0.031211737543344498,
        0.013075949624180794
      ],
      "min": [
        -0.4421434998512268,
        -0.14967724680900574,
        -0.013075949624180794
      ],
      "type": "VEC3"
    },
    {
      "bufferView": 2,
      "byteOffset": 15300,
      "componentType": 5126,
      "count": 1275,
      "max": [
        1.0,
        0.9999488592147827,
        1.0
      ],
      "min": [
        -0.9998707175254822,
        -0.9999929070472717,
        -1.0
      ],
      "type": "VEC3"
    },
    {
      "bufferView": 3,
      "componentType": 5126,
      "count": 1275,
      "max": [
        0.999998152256012,
        0.9482803344726563,
        1.0,
        1.0
      ],
      "min": [
        -0.9999898672103882,
        -0.948927104473114,
        -1.0,
        -1.0
      ],
      "type": "VEC4"
    },
    {
      "bufferView": 1,
      "componentType": 5126,
      "count": 1275,
      "max": [
        0.9914219379425049,
        0.9971102476119995
      ],
      "min": [
        0.00598782766610384,
        0.0021103546023368835
      ],
      "type": "VEC2"
    },
    {
      "bufferView": 1,
      "byteOffset": 10200,
      "componentType": 5126,
      "count": 1275,
      "max": [
        0.9914219379425049,
        0.9971102476119995
      ],
      "min": [
        0.00598782766610384,
        0.0021103546023368835
      ],
      "type": "VEC2"
    },
    {
      "bufferView": 0,
      "componentType": 5125,
      "count": 3306,
      "type": "SCALAR"
    }
  ],
  "asset": {
    "extras": {
      "author": "RanJJ (https://sketchfab.com/RanJJ)",
      "license": "CC-BY-4.0 (http://creativecommons.org/licenses/by/4.0/)",
      "source": "https://sketchfab.com/3d-models/low-poly-sword-7e183f07ae834e05bc517b5bfb1ed879",
      "title": "Low poly sword"
    },
    "generator": "Sketchfab-14.69.0",
    "version": "2.0"
  },
  "bufferViews": [
    {
      "buffer": 0,
      "byteLength": 13224,
      "name": "floatBufferViews",
      "target": 34963
    },
    {
      "buffer": 0,
      "byteLength": 20400,
      "byteOffset": 13224,
      "byteStride": 8,
      "name": "floatBufferViews",
      "target": 34962
    },
    {
      "buffer": 0,
      "byteLength": 30600,
      "byteOffset": 33624,
      "byteStride": 12,
      "name": "floatBufferViews",
      "target": 34962
    },
    {
      "buffer": 0,
      "byteLength": 20400,
      "byteOffset": 64224,
      "byteStride": 16,
      "name": "floatBufferViews",
      "target": 34962
    }
  ],
  "buffers": [
    {
      "byteLength": 84624,
      "uri": "scene.bin"
    }
  ],
  "images": [
    {
      "uri": "textures/Material.001_baseColor.png"
    },
    {
      "uri": "textures/Material.001_metallicRoughness.png"
    },
    {
      "uri": "textures/Material.001_normal.png"
    }
  ],
  "materials": [
    {
      "doubleSided": true,
      "name": "Material.001",
      "normalTexture": {
        "index": 2
      },
      "occlusionTexture": {
        "index": 1
      },
      "pbrMetallicRoughness": {
        "baseColorTexture": {
          "index": 0
        },
        "metallicRoughnessTexture": {
          "index": 1
        }
      }
    }
  ],
  "meshes": [
    {
      "name": "LP_Sword_Material.001_0",
      "primitives": [
        {
          "attributes": {
            "NORMAL": 1,
            "POSITION": 0,
            "TANGENT": 2,
            "TEXCOORD_0": 3,
            "TEXCOORD_1": 4
          },
          "indices": 5,
          "material": 0,
          "mode": 4
        }
      ]
    }
  ],
  "nodes": [
    {
      "children": [
        1
      ],
      "matrix": [
        1.0,
        0.0,
        0.0,
        0.0,
        0.0,
        2.220446049250313e-16,
        -1.0,
        0.0,
        0.0,
        1.0,
        2.220446049250313e-16,
        0.0,
        0.0,
        0.0,
        0.0,
        1.0
      ],
      "name": "Sketchfab_model"
    },
    {
      "children": [
        2
      ],
      "matrix": [
        0.009999999776482582,
        0.0,
        0.0,
        0.0,
        0.0,
        0.0,
        0.009999999776482582,
        0.0,
        0.0,
        -0.009999999776482582,
        0.0,
        0.0,
        0.0,
        0.0,
        0.0,
        1.0
      ],
      "name": "f1ec28bb6b154a06b1a26acda0fee8d3.fbx"
    },
    {
      "children": [
        3
      ],
      "name": "RootNode"
    },
    {
      "children": [
        4
      ],
      "matrix": [
        100.0,
        0.0,
        0.0,
        0.0,
        0.0,
        -1.629206793918314e-05,
        -99.99999999999868,
        0.0,
        0.0,
        99.99999999999868,
        -1.629206793918314e-05,
        0.0,
        0.0011329306289553642,
        3.877212293446064e-05,
        -6.049841072552908e-09,
        1.0
      ],
      "name": "LP_Sword"
    },
    {
      "mesh": 0,
      "name": "LP_Sword_Material.001_0"
    }
  ],
  "samplers": [
    {
      "magFilter": 9729,
      "minFilter": 9987,
      "wrapS": 10497,
      "wrapT": 10497
    }
  ],
  "scene": 0,
  "scenes": [
    {
      "name": "Sketchfab_Scene",
      "nodes": [
        0
      ]
    }
  ],
  "textures": [
    {
      "sampler": 0,
      "source": 0
    },
    {
      "sampler": 0,
      "source": 1
    },
    {
      "sampler": 0,
      "source": 2
    }
  ]
}
