{
  "accessors": [
    {
      "bufferView": 2,
      "componentType": 5126,
      "count": 1528,
      "max": [
        27.220226287841797,
        8.53956127166748,
        87.46821594238281
      ],
      "min": [
        -27.263904571533203,
        -0.715722918510437,
        1.52569580078125
      ],
      "type": "VEC3"
    },
    {
      "bufferView": 2,
      "byteOffset": 18336,
      "componentType": 5126,
      "count": 1528,
      "max": [
        0.999968409538269,
        1.0,
        0.9999994039535522
      ],
      "min": [
        -0.999983549118042,
        -0.9999998807907104,
        -0.9999763369560242
      ],
      "type": "VEC3"
    },
    {
      "bufferView": 3,
      "componentType": 5126,
      "count": 1528,
      "max": [
        0.9983700513839722,
        0.9999971389770508,
        0.999999463558197,
        1.0
      ],
      "min": [
        -0.9999946355819702,
        -0.9998610019683838,
        -1.0,
        -1.0
      ],
      "type": "VEC4"
    },
    {
      "bufferView": 1,
      "componentType": 5126,
      "count": 1528,
      "max": [
        1.9983482360839844,
        0.9998365044593811
      ],
      "min": [
        3.114352580269042e-07,
        0.0007320620352402329
      ],
      "type": "VEC2"
    },
    {
      "bufferView": 0,
      "componentType": 5125,
      "count": 5814,
      "type": "SCALAR"
    }
  ],
  "asset": {
    "extras": {
      "author": "Adriancgmask (https://sketchfab.com/Adriancgmask)",
      "license": "CC-BY-4.0 (http://creativecommons.org/licenses/by/4.0/)",
      "source": "https://sketchfab.com/3d-models/dragon-shield-c3c301cfbf4a48589db6793d77b2c646",
      "title": "DRAGON SHIELD"
    },
    "generator": "Sketchfab-12.65.0",
    "version": "2.0"
  },
  "bufferViews": [
    {
      "buffer": 0,
      "byteLength": 23256,
      "name": "floatBufferViews",
      "target": 34963
    },
    {
      "buffer": 0,
      "byteLength": 12224,
      "byteOffset": 23256,
      "byteStride": 8,
      "name": "floatBufferViews",
      "target": 34962
    },
    {
      "buffer": 0,
      "byteLength": 36672,
      "byteOffset": 35480,
      "byteStride": 12,
      "name": "floatBufferViews",
      "target": 34962
    },
    {
      "buffer": 0,
      "byteLength": 24448,
      "byteOffset": 72152,
      "byteStride": 16,
      "name": "floatBufferViews",
      "target": 34962
    }
  ],
  "buffers": [
    {
      "byteLength": 96600,
      "uri": "scene.bin"
    }
  ],
  "images": [
    {
      "uri": "textures/sheild_dragone_baseColor.png"
    },
    {
      "uri": "textures/sheild_dragone_metallicRoughness.png"
    },
    {
      "uri": "textures/sheild_dragone_emissive.png"
    },
    {
      "uri": "textures/sheild_dragone_normal.png"
    }
  ],
  "materials": [
    {
      "doubleSided": true,
      "emissiveFactor": [
        1.0,
        1.0,
        1.0
      ],
      "emissiveTexture": {
        "index": 2
      },
      "name": "sheild_dragone",
      "normalTexture": {
        "index": 3
      },
      "pbrMetallicRoughness": {
        "baseColorTexture": {
          "index": 0
        },
        "metallicRoughnessTexture": {
          "index": 1
        }
      }
    }
  ],
  "meshes": [
    {
      "name": "sheild_dragone_lod1_sheild_dragone_0",
      "primitives": [
        {
          "attributes": {
            "NORMAL": 1,
            "POSITION": 0,
            "TANGENT": 2,
            "TEXCOORD_0": 3
          },
          "indices": 4,
          "material": 0,
          "mode": 4
        }
      ]
    }
  ],
  "nodes": [
    {
      "children": [
        1
      ],
      "matrix": [
        1.0,
        0.0,
        0.0,
        0.0,
        0.0,
        2.220446049250313e-16,
        -1.0,
        0.0,
        0.0,
        1.0,
        2.220446049250313e-16,
        0.0,
        0.0,
        0.0,
        0.0,
        1.0
      ],
      "name": "Sketchfab_model"
    },
    {
      "children": [
        2
      ],
      "matrix": [
        1.0,
        0.0,
        0.0,
        0.0,
        0.0,
        0.0,
        1.0,
        0.0,
        0.0,
        -1.0,
        0.0,
        0.0,
        0.0,
        0.0,
        0.0,
        1.0
      ],
      "name": "37a50f7de2b345339761f0f25fb8728c.fbx"
    },
    {
      "children": [
        3
      ],
      "name": "RootNode"
    },
    {
      "children": [
        4
      ],
      "matrix": [
        1.0,
        0.0,
        0.0,
        0.0,
        0.0,
        2.220446049250313e-16,
        -1.0,
        0.0,
        0.0,
        1.0,
        2.220446049250313e-16,
        0.0,
        -0.021839141845703125,
        44.49695587158203,
        -3.911919116973877,
        1.0
      ],
      "name": "sheild_dragone_lod1"
    },
    {
      "children": [
        5
      ],
      "matrix": [
        1.0,
        0.0,
        -0.0,
        0.0,
        0.0,
        1.0,
        0.0,
        0.0,
        0.0,
        0.0,
        1.0,
        0.0,
        0.021839141845703125,
        -3.911919116973877,
        -44.49695587158203,
        1.0
      ],
      "name": "Object_4"
    },
    {
      "mesh": 0,
      "name": "sheild_dragone_lod1_sheild_dragone_0"
    }
  ],
  "samplers": [
    {
      "magFilter": 9729,
      "minFilter": 9987,
      "wrapS": 10497,
      "wrapT": 10497
    }
  ],
  "scene": 0,
  "scenes": [
    {
      "name": "Sketchfab_Scene",
      "nodes": [
        0
      ]
    }
  ],
  "textures": [
    {
      "sampler": 0,
      "source": 0
    },
    {
      "sampler": 0,
      "source": 1
    },
    {
      "sampler": 0,
      "source": 2
    },
    {
      "sampler": 0,
      "source": 3
    }
  ]
}
