{
  "accessors": [
    {
      "bufferView": 2,
      "componentType": 5126,
      "count": 294,
      "max": [
        0.028232000768184662,
        0.019747000187635422,
        -0.043869998306035995
      ],
      "min": [
        -0.028232000768184662,
        -0.019747000187635422,
        -0.3178279995918274
      ],
      "type": "VEC3"
    },
    {
      "bufferView": 2,
      "byteOffset": 3528,
      "componentType": 5126,
      "count": 294,
      "max": [
        0.9999662637710571,
        0.999363362789154,
        1.0
      ],
      "min": [
        -0.9999662637710571,
        -0.9998853802680969,
        -1.0
      ],
      "type": "VEC3"
    },
    {
      "bufferView": 3,
      "componentType": 5126,
      "count": 294,
      "max": [
        1.0,
        0.7414959073066711,
        0.9999852180480957,
        1.0
      ],
      "min": [
        -1.0,
        -0.7404894828796387,
        -0.9865164756774902,
        -1.0
      ],
      "type": "VEC4"
    },
    {
      "bufferView": 1,
      "componentType": 5126,
      "count": 294,
      "max": [
        0.6923630237579346,
        0.5697119832038879
      ],
      "min": [
        0.0019529999699443579,
        0.0019529999699443579
      ],
      "type": "VEC2"
    },
    {
      "bufferView": 0,
      "componentType": 5125,
      "count": 1416,
      "type": "SCALAR"
    },
    {
      "bufferView": 2,
      "byteOffset": 7056,
      "componentType": 5126,
      "count": 1822,
      "max": [
        0.1731339991092682,
        0.021006999537348747,
        0.05225199833512306
      ],
      "min": [
        -0.1731339991092682,
        -0.021006999537348747,
        -0.05225199833512306
      ],
      "type": "VEC3"
    },
    {
      "bufferView": 2,
      "byteOffset": 28920,
      "componentType": 5126,
      "count": 1822,
      "max": [
        0.999948263168335,
        1.0,
        0.9999530911445618
      ],
      "min": [
        -0.999948263168335,
        -1.0,
        -0.9999709725379944
      ],
      "type": "VEC3"
    },
    {
      "bufferView": 3,
      "byteOffset": 4704,
      "componentType": 5126,
      "count": 1822,
      "max": [
        0.9999372959136963,
        0.9999998807907104,
        0.9999963045120239,
        1.0
      ],
      "min": [
        -0.9999985098838806,
        -0.9998345971107483,
        -0.9999961853027344,
        -1.0
      ],
      "type": "VEC4"
    },
    {
      "bufferView": 1,
      "byteOffset": 2352,
      "componentType": 5126,
      "count": 1822,
      "max": [
        0.9980469942092896,
        0.9916470050811768
      ],
      "min": [
        0.0019529999699443579,
        0.0019529999699443579
      ],
      "type": "VEC2"
    },
    {
      "bufferView": 0,
      "byteOffset": 5664,
      "componentType": 5125,
      "count": 6198,
      "type": "SCALAR"
    },
    {
      "bufferView": 2,
      "byteOffset": 50784,
      "componentType": 5126,
      "count": 424,
      "max": [
        0.0400409996509552,
        0.0065009999088943005,
        1.1000009775161743
      ],
      "min": [
        -0.0400409996509552,
        -0.0065009999088943005,
        -0.0
      ],
      "type": "VEC3"
    },
    {
      "bufferView": 2,
      "byteOffset": 55872,
      "componentType": 5126,
      "count": 424,
      "max": [
        0.749167799949646,
        1.0,
        0.14018304646015167
      ],
      "min": [
        -0.749167799949646,
        -1.0,
        -0.09461001306772232
      ],
      "type": "VEC3"
    },
    {
      "bufferView": 3,
      "byteOffset": 33856,
      "componentType": 5126,
      "count": 424,
      "max": [
        0.0668577328324318,
        0.107823945581913,
        1.0,
        1.0
      ],
      "min": [
        -0.04180974140763283,
        -0.146725133061409,
        -1.0,
        1.0
      ],
      "type": "VEC4"
    },
    {
      "bufferView": 1,
      "byteOffset": 16928,
      "componentType": 5126,
      "count": 424,
      "max": [
        0.9892579913139343,
        0.7215920090675354
      ],
      "min": [
        0.0038640000857412815,
        0.18261699378490448
      ],
      "type": "VEC2"
    },
    {
      "bufferView": 0,
      "byteOffset": 30456,
      "componentType": 5125,
      "count": 2034,
      "type": "SCALAR"
    }
  ],
  "asset": {
    "extras": {
      "author": "ghostnoface (https://sketchfab.com/ghostnoface)",
      "license": "CC-BY-4.0 (http://creativecommons.org/licenses/by/4.0/)",
      "source": "https://sketchfab.com/3d-models/procedural-sword-test-14-256d1e51412a4d32809466e13f65bb1b",
      "title": "Procedural sword test 14"
    },
    "generator": "Sketchfab-16.95.0",
    "version": "2.0"
  },
  "bufferViews": [
    {
      "buffer": 0,
      "byteLength": 38592,
      "name": "floatBufferViews",
      "target": 34963
    },
    {
      "buffer": 0,
      "byteLength": 20320,
      "byteOffset": 38592,
      "byteStride": 8,
      "name": "floatBufferViews",
      "target": 34962
    },
    {
      "buffer": 0,
      "byteLength": 60960,
      "byteOffset": 58912,
      "byteStride": 12,
      "name": "floatBufferViews",
      "target": 34962
    },
    {
      "buffer": 0,
      "byteLength": 40640,
      "byteOffset": 119872,
      "byteStride": 16,
      "name": "floatBufferViews",
      "target": 34962
    }
  ],
  "buffers": [
    {
      "byteLength": 160512,
      "uri": "scene.bin"
    }
  ],
  "images": [
    {
      "uri": "textures/DefaultMaterial_baseColor.jpeg"
    },
    {
      "uri": "textures/DefaultMaterial_metallicRoughness.png"
    },
    {
      "uri": "textures/DefaultMaterial_normal.png"
    }
  ],
  "materials": [
    {
      "doubleSided": true,
      "name": "DefaultMaterial",
      "normalTexture": {
        "index": 2
      },
      "occlusionTexture": {
        "index": 1
      },
      "pbrMetallicRoughness": {
        "baseColorTexture": {
          "index": 0
        },
        "metallicRoughnessTexture": {
          "index": 1
        }
      }
    }
  ],
  "meshes": [
    {
      "name": "defaultMaterial",
      "primitives": [
        {
          "attributes": {
            "NORMAL": 1,
            "POSITION": 0,
            "TANGENT": 2,
            "TEXCOORD_0": 3
          },
          "indices": 4,
          "material": 0,
          "mode": 4
        }
      ]
    },
    {
      "name": "defaultMaterial",
      "primitives": [
        {
          "attributes": {
            "NORMAL": 6,
            "POSITION": 5,
            "TANGENT": 7,
            "TEXCOORD_0": 8
          },
          "indices": 9,
          "material": 0,
          "mode": 4
        }
      ]
    },
    {
      "name": "defaultMaterial",
      "primitives": [
        {
          "attributes": {
            "NORMAL": 11,
            "POSITION": 10,
            "TANGENT": 12,
            "TEXCOORD_0": 13
          },
          "indices": 14,
          "material": 0,
          "mode": 4
        }
      ]
    }
  ],
  "nodes": [
    {
      "children": [
        1
      ],
      "matrix": [
        1.0,
        0.0,
        0.0,
        0.0,
        0.0,
        2.220446049250313e-16,
        -1.0,
        0.0,
        0.0,
        1.0,
        2.220446049250313e-16,
        0.0,
        0.0,
        0.0,
        0.0,
        1.0
      ],
      "name": "Sketchfab_model"
    },
    {
      "children": [
        2,
        4,
        6
      ],
      "matrix": [
        1.0,
        0.0,
        0.0,
        0.0,
        0.0,
        -4.371139006309477e-08,
        0.999999999999999,
        0.0,
        0.0,
        -0.999999999999999,
        -4.371139006309477e-08,
        0.0,
        0.0,
        0.0,
        0.0,
        1.0
      ],
      "name": "Collada visual scene group"
    },
    {
      "children": [
        3
      ],
      "name": "handle_low"
    },
    {
      "mesh": 0,
      "name": "defaultMaterial"
    },
    {
      "children": [
        5
      ],
      "name": "guard_low"
    },
    {
      "mesh": 1,
      "name": "defaultMaterial"
    },
    {
      "children": [
        7
      ],
      "name": "blade_low"
    },
    {
      "mesh": 2,
      "name": "defaultMaterial"
    }
  ],
  "samplers": [
    {
      "magFilter": 9729,
      "minFilter": 9987,
      "wrapS": 10497,
      "wrapT": 10497
    }
  ],
  "scene": 0,
  "scenes": [
    {
      "name": "Sketchfab_Scene",
      "nodes": [
        0
      ]
    }
  ],
  "textures": [
    {
      "sampler": 0,
      "source": 0
    },
    {
      "sampler": 0,
      "source": 1
    },
    {
      "sampler": 0,
      "source": 2
    }
  ]
}
